<svg width="12" height="12" viewBox="0 0 12 12" fill="none" xmlns="http://www.w3.org/2000/svg">
<g clip-path="url(#clip0_178_15293)">
<path d="M5.14489 1.93001L0.909888 9.00001C0.822572 9.15122 0.776372 9.32266 0.775883 9.49727C0.775394 9.67188 0.820634 9.84358 0.907102 9.99527C0.993569 10.147 1.11825 10.2734 1.26874 10.3619C1.41923 10.4505 1.59029 10.4981 1.76489 10.5H10.2349C10.4095 10.4981 10.5805 10.4505 10.731 10.3619C10.8815 10.2734 11.0062 10.147 11.0927 9.99527C11.1791 9.84358 11.2244 9.67188 11.2239 9.49727C11.2234 9.32266 11.1772 9.15122 11.0899 9.00001L6.85489 1.93001C6.76575 1.78306 6.64025 1.66157 6.49049 1.57725C6.34072 1.49293 6.17176 1.44864 5.99989 1.44864C5.82802 1.44864 5.65905 1.49293 5.50929 1.57725C5.35953 1.66157 5.23402 1.78306 5.14489 1.93001Z" stroke="#FF0000" stroke-width="2" stroke-linecap="round" stroke-linejoin="round"/>
<path d="M6 4.5V6.5" stroke="#FF0000" stroke-width="2" stroke-linecap="round" stroke-linejoin="round"/>
<path d="M6 8.5H6.005" stroke="#FF0000" stroke-width="2" stroke-linecap="round" stroke-linejoin="round"/>
</g>
<defs>
<clipPath id="clip0_178_15293">
<rect width="12" height="12" fill="white"/>
</clipPath>
</defs>
</svg>
