<svg width="15" height="15" viewBox="0 0 15 15" fill="none" xmlns="http://www.w3.org/2000/svg">
<path d="M7.5 7.5C8.24592 7.5 8.96129 7.20368 9.48874 6.67624C10.0162 6.14879 10.3125 5.43342 10.3125 4.6875C10.3125 3.94158 10.0162 3.22621 9.48874 2.69876C8.96129 2.17132 8.24592 1.875 7.5 1.875C6.75408 1.875 6.03871 2.17132 5.51126 2.69876C4.98382 3.22621 4.6875 3.94158 4.6875 4.6875C4.6875 5.43342 4.98382 6.14879 5.51126 6.67624C6.03871 7.20368 6.75408 7.5 7.5 7.5ZM9.375 4.6875C9.375 5.18478 9.17746 5.66169 8.82582 6.01333C8.47419 6.36496 7.99728 6.5625 7.5 6.5625C7.00272 6.5625 6.52581 6.36496 6.17417 6.01333C5.82254 5.66169 5.625 5.18478 5.625 4.6875C5.625 4.19022 5.82254 3.71331 6.17417 3.36167C6.52581 3.01004 7.00272 2.8125 7.5 2.8125C7.99728 2.8125 8.47419 3.01004 8.82582 3.36167C9.17746 3.71331 9.375 4.19022 9.375 4.6875ZM13.125 12.1875C13.125 13.125 12.1875 13.125 12.1875 13.125H2.8125C2.8125 13.125 1.875 13.125 1.875 12.1875C1.875 11.25 2.8125 8.4375 7.5 8.4375C12.1875 8.4375 13.125 11.25 13.125 12.1875ZM12.1875 12.1838C12.1866 11.9531 12.0431 11.2594 11.4075 10.6237C10.7963 10.0125 9.64594 9.375 7.5 9.375C5.35406 9.375 4.20375 10.0125 3.5925 10.6237C2.95688 11.2594 2.81437 11.9531 2.8125 12.1838H12.1875Z" fill="black"/>
</svg>
