<svg width="15" height="15" viewBox="0 0 15 15" fill="none" xmlns="http://www.w3.org/2000/svg">
<path d="M12.6562 7.5V12.1875C12.6562 12.4361 12.5575 12.6746 12.3817 12.8504C12.2058 13.0262 11.9674 13.125 11.7188 13.125H2.8125C2.56386 13.125 2.3254 13.0262 2.14959 12.8504C1.97377 12.6746 1.875 12.4361 1.875 12.1875V3.28125C1.875 3.03261 1.97377 2.79415 2.14959 2.61834C2.3254 2.44252 2.56386 2.34375 2.8125 2.34375H7.5C7.62432 2.34375 7.74355 2.39314 7.83146 2.48104C7.91936 2.56895 7.96875 2.68818 7.96875 2.8125C7.96875 2.93682 7.91936 3.05605 7.83146 3.14396C7.74355 3.23186 7.62432 3.28125 7.5 3.28125H2.8125V12.1875H11.7188V7.5C11.7188 7.37568 11.7681 7.25645 11.856 7.16854C11.944 7.08064 12.0632 7.03125 12.1875 7.03125C12.3118 7.03125 12.431 7.08064 12.519 7.16854C12.6069 7.25645 12.6562 7.37568 12.6562 7.5ZM11.4844 1.40625C11.0672 1.40625 10.6594 1.52996 10.3125 1.76174C9.96558 1.99352 9.69522 2.32296 9.53557 2.7084C9.37591 3.09384 9.33414 3.51797 9.41553 3.92714C9.49692 4.33632 9.69782 4.71218 9.99282 5.00718C10.2878 5.30218 10.6637 5.50308 11.0729 5.58447C11.482 5.66586 11.9062 5.62409 12.2916 5.46443C12.677 5.30478 13.0065 5.03442 13.2383 4.68753C13.47 4.34065 13.5938 3.93282 13.5938 3.51562C13.5938 2.95618 13.3715 2.41966 12.9759 2.02407C12.5803 1.62849 12.0438 1.40625 11.4844 1.40625Z" fill="black"/>
</svg>
