<svg width="24" height="25" viewBox="0 0 24 25" fill="none" xmlns="http://www.w3.org/2000/svg">
<path d="M19.59 16L17.77 14.7C18.07 13.62 18.09 12.45 17.77 11.28L19.59 10L18.14 7.5L16.11 8.42C15.32 7.62 14.32 7 13.15 6.71L12.95 4.5H10.05L9.84996 6.71C8.67996 7 7.67996 7.62 6.88996 8.42L4.85996 7.5L3.40996 10L5.22996 11.28C4.90996 12.45 4.92996 13.62 5.22996 14.7L3.40996 16L4.85996 18.5L6.88996 17.57C7.67996 18.36 8.67996 18.96 9.84996 19.27L10.05 21.5H12.95L13.15 19.27C14.32 18.96 15.32 18.36 16.11 17.57L18.14 18.5L19.59 16ZM13.5 3.5C13.77 3.5 14 3.7 14 3.96L14.18 6C14.94 6.28 15.62 6.69 16.23 7.18L18.08 6.31C18.31 6.19 18.6 6.27 18.74 6.5L20.74 10C20.88 10.21 20.8 10.5 20.58 10.65L18.91 11.82C19.04 12.62 19.03 13.41 18.91 14.18L20.58 15.35C20.8 15.5 20.88 15.79 20.74 16L18.74 19.5C18.6 19.71 18.31 19.79 18.08 19.67L16.23 18.81C15.62 19.3 14.94 19.7 14.18 20L14 22C14 22.29 13.77 22.5 13.5 22.5H9.49996C9.36735 22.5 9.24017 22.4473 9.1464 22.3536C9.05263 22.2598 8.99996 22.1326 8.99996 22L8.81996 20C8.05996 19.7 7.37996 19.3 6.76996 18.81L4.91996 19.67C4.68996 19.79 4.39996 19.71 4.25996 19.5L2.25996 16C2.11996 15.79 2.19996 15.5 2.41996 15.35L4.08996 14.18C3.96996 13.41 3.95996 12.62 4.08996 11.82L2.41996 10.65C2.19996 10.5 2.11996 10.21 2.25996 10L4.25996 6.5C4.39996 6.27 4.68996 6.19 4.91996 6.31L6.76996 7.18C7.37996 6.69 8.05996 6.28 8.81996 6L8.99996 3.96C8.99996 3.7 9.22996 3.5 9.49996 3.5H13.5ZM11.5 9.5C12.4282 9.5 13.3185 9.86875 13.9748 10.5251C14.6312 11.1815 15 12.0717 15 13C15 13.9283 14.6312 14.8185 13.9748 15.4749C13.3185 16.1313 12.4282 16.5 11.5 16.5C10.5717 16.5 9.68146 16.1313 9.02508 15.4749C8.36871 14.8185 7.99996 13.9283 7.99996 13C7.99996 12.0717 8.36871 11.1815 9.02508 10.5251C9.68146 9.86875 10.5717 9.5 11.5 9.5ZM11.5 10.5C10.8369 10.5 10.201 10.7634 9.73219 11.2322C9.26335 11.7011 8.99996 12.337 8.99996 13C8.99996 13.663 9.26335 14.2989 9.73219 14.7678C10.201 15.2366 10.8369 15.5 11.5 15.5C12.163 15.5 12.7989 15.2366 13.2677 14.7678C13.7366 14.2989 14 13.663 14 13C14 12.337 13.7366 11.7011 13.2677 11.2322C12.7989 10.7634 12.163 10.5 11.5 10.5Z" fill="black"/>
</svg>
